<?xml version="1.0" encoding="UTF-8"?>
<svg version="1.1" xmlns="http://www.w3.org/2000/svg" width="237" height="216">
<path d="M0 0 C78.21 0 156.42 0 237 0 C237 71.28 237 142.56 237 216 C158.79 216 80.58 216 0 216 C0 144.72 0 73.44 0 0 Z " fill="#155DFB" transform="translate(0,0)"/>
<path d="M0 0 C1.29357422 -0.02835938 2.58714844 -0.05671875 3.91992188 -0.0859375 C10.53996554 -0.09948235 15.63910781 0.08058738 21.16088867 3.93554688 C27.10400551 10.02598229 26.20333536 16.79584925 26.1875 24.8125 C26.21585938 26.10607422 26.24421875 27.39964844 26.2734375 28.73242188 C26.28865558 36.17025708 25.95372649 41.90391728 20.6875 47.5 C15.85444677 51.0149478 11.40541606 50.78479761 5.6875 50.5 C5.80111602 53.29256219 5.9278589 56.08344118 6.0625 58.875 C6.10890625 60.06609375 6.10890625 60.06609375 6.15625 61.28125 C6.20566421 65.86667375 6.20566421 65.86667375 8.6875 69.5 C11.58717757 69.80675232 14.40533178 70.01173371 17.3125 70.125 C18.11429688 70.16367188 18.91609375 70.20234375 19.7421875 70.2421875 C21.72357556 70.33653931 23.70550645 70.41936215 25.6875 70.5 C25.62949219 69.85933594 25.57148437 69.21867187 25.51171875 68.55859375 C25.21776754 62.92312916 25.62392969 59.47102576 29.10546875 54.97265625 C35.32914143 49.17926218 41.94601815 49.9840909 50 50 C51.29357422 49.97164062 52.58714844 49.94328125 53.91992188 49.9140625 C60.53996554 49.90051765 65.63910781 50.08058738 71.16088867 53.93554688 C77.10400551 60.02598229 76.20333536 66.79584925 76.1875 74.8125 C76.21585937 76.10607422 76.24421875 77.39964844 76.2734375 78.73242188 C76.28689687 85.31068878 76.1008632 90.44028928 72.34960938 95.97338867 C65.95669029 101.84514587 58.37727163 101.01610158 50.25 101 C48.95255859 101.02835937 47.65511719 101.05671875 46.31835938 101.0859375 C38.76406568 101.10140968 34.19710538 100.86670495 28.6875 95.5 C26.10635169 91.83643466 25.55355476 89.16704509 25.62109375 84.796875 C25.63068115 83.99088867 25.64026855 83.18490234 25.65014648 82.35449219 C25.66247314 81.74250977 25.6747998 81.13052734 25.6875 80.5 C24.39714844 80.54640625 23.10679688 80.5928125 21.77734375 80.640625 C20.05991912 80.67816434 18.34246928 80.71456217 16.625 80.75 C15.77744141 80.78351563 14.92988281 80.81703125 14.05664062 80.8515625 C8.03061592 80.94462852 4.50355009 80.2277791 -0.3125 76.5 C-4.61931112 70.9358779 -4.83452158 66.44150735 -4.5625 59.5625 C-4.54445313 58.68787109 -4.52640625 57.81324219 -4.5078125 56.91210938 C-4.46108353 54.77425892 -4.38935441 52.63697955 -4.3125 50.5 C-4.95316406 50.55800781 -5.59382813 50.61601563 -6.25390625 50.67578125 C-11.84420617 50.96737663 -15.333193 50.5679802 -19.83984375 47.1796875 C-25.56019423 40.65514982 -24.82867692 33.22780026 -24.8125 25.0625 C-24.84085937 23.76505859 -24.86921875 22.46761719 -24.8984375 21.13085938 C-24.9202236 10.49379555 -24.9202236 10.49379555 -22.09375 6.27734375 C-15.28207578 -0.52476351 -9.22682346 -0.01822582 0 0 Z " fill="#FCFCFE" transform="translate(92.3125,59.5)"/>
<path d="M0 0 C1.05960938 -0.00386719 2.11921875 -0.00773437 3.2109375 -0.01171875 C4.86996094 0.00568359 4.86996094 0.00568359 6.5625 0.0234375 C8.22152344 0.00603516 8.22152344 0.00603516 9.9140625 -0.01171875 C10.97367188 -0.00785156 12.03328125 -0.00398438 13.125 0 C14.58099609 0.00507568 14.58099609 0.00507568 16.06640625 0.01025391 C18.5625 0.3984375 18.5625 0.3984375 20.37744141 1.58349609 C22.00628139 4.07809775 21.95059182 5.86820415 21.9609375 8.8359375 C21.96673828 10.42535156 21.96673828 10.42535156 21.97265625 12.046875 C21.96105469 13.15289062 21.94945312 14.25890625 21.9375 15.3984375 C21.94910156 16.50445312 21.96070313 17.61046875 21.97265625 18.75 C21.96878906 19.80960938 21.96492188 20.86921875 21.9609375 21.9609375 C21.95755371 22.93160156 21.95416992 23.90226562 21.95068359 24.90234375 C21.5625 27.3984375 21.5625 27.3984375 20.37744141 29.21337891 C17.88283975 30.84221889 16.09273335 30.78652932 13.125 30.796875 C12.06539062 30.80074219 11.00578125 30.80460937 9.9140625 30.80859375 C8.80804688 30.79699219 7.70203125 30.78539062 6.5625 30.7734375 C5.45648438 30.78503906 4.35046875 30.79664063 3.2109375 30.80859375 C2.15132812 30.80472656 1.09171875 30.80085938 0 30.796875 C-0.97066406 30.79349121 -1.94132813 30.79010742 -2.94140625 30.78662109 C-5.4375 30.3984375 -5.4375 30.3984375 -7.25244141 29.21337891 C-8.88128139 26.71877725 -8.82559182 24.92867085 -8.8359375 21.9609375 C-8.83980469 20.90132812 -8.84367187 19.84171875 -8.84765625 18.75 C-8.83605469 17.64398438 -8.82445313 16.53796875 -8.8125 15.3984375 C-8.82410156 14.29242188 -8.83570312 13.18640625 -8.84765625 12.046875 C-8.84378906 10.98726562 -8.83992188 9.92765625 -8.8359375 8.8359375 C-8.83255371 7.86527344 -8.82916992 6.89460938 -8.82568359 5.89453125 C-8.4375 3.3984375 -8.4375 3.3984375 -7.25244141 1.58349609 C-4.75783975 -0.04534389 -2.96773335 0.01034568 0 0 Z " fill="#165DFC" transform="translate(136.4375,119.6015625)"/>
<path d="M0 0 C1.05960938 -0.00386719 2.11921875 -0.00773437 3.2109375 -0.01171875 C4.86996094 0.00568359 4.86996094 0.00568359 6.5625 0.0234375 C8.22152344 0.00603516 8.22152344 0.00603516 9.9140625 -0.01171875 C10.97367188 -0.00785156 12.03328125 -0.00398438 13.125 0 C14.58099609 0.00507568 14.58099609 0.00507568 16.06640625 0.01025391 C18.5625 0.3984375 18.5625 0.3984375 20.37744141 1.58349609 C22.00628139 4.07809775 21.95059182 5.86820415 21.9609375 8.8359375 C21.96673828 10.42535156 21.96673828 10.42535156 21.97265625 12.046875 C21.96105469 13.15289062 21.94945313 14.25890625 21.9375 15.3984375 C21.94910156 16.50445312 21.96070312 17.61046875 21.97265625 18.75 C21.96878906 19.80960938 21.96492188 20.86921875 21.9609375 21.9609375 C21.95755371 22.93160156 21.95416992 23.90226562 21.95068359 24.90234375 C21.5625 27.3984375 21.5625 27.3984375 20.37744141 29.21337891 C17.88283975 30.84221889 16.09273335 30.78652932 13.125 30.796875 C12.06539062 30.80074219 11.00578125 30.80460937 9.9140625 30.80859375 C8.80804688 30.79699219 7.70203125 30.78539063 6.5625 30.7734375 C5.45648438 30.78503906 4.35046875 30.79664062 3.2109375 30.80859375 C2.15132812 30.80472656 1.09171875 30.80085938 0 30.796875 C-0.97066406 30.79349121 -1.94132812 30.79010742 -2.94140625 30.78662109 C-5.4375 30.3984375 -5.4375 30.3984375 -7.25244141 29.21337891 C-8.88128139 26.71877725 -8.82559182 24.92867085 -8.8359375 21.9609375 C-8.83980469 20.90132812 -8.84367187 19.84171875 -8.84765625 18.75 C-8.83605469 17.64398438 -8.82445313 16.53796875 -8.8125 15.3984375 C-8.82410156 14.29242188 -8.83570312 13.18640625 -8.84765625 12.046875 C-8.84378906 10.98726562 -8.83992188 9.92765625 -8.8359375 8.8359375 C-8.83255371 7.86527344 -8.82916992 6.89460938 -8.82568359 5.89453125 C-8.4375 3.3984375 -8.4375 3.3984375 -7.25244141 1.58349609 C-4.75783975 -0.04534389 -2.96773335 0.01034568 0 0 Z " fill="#165DFC" transform="translate(86.4375,69.6015625)"/>
<path d="M0 0 C3.3 0 6.6 0 10 0 C10 3.96 10 7.92 10 12 C6.0747975 8.29909479 3.05419844 4.45040344 0 0 Z " fill="#30488E" transform="translate(227,0)"/>
<path d="M0 0 C2.97 0 5.94 0 9 0 C8.06558465 1.27310312 7.12732889 2.543388 6.1875 3.8125 C5.66542969 4.52019531 5.14335938 5.22789063 4.60546875 5.95703125 C3 8 3 8 0 11 C0 7.37 0 3.74 0 0 Z " fill="#2F478A" transform="translate(0,0)"/>
<path d="M0 0 C0.33 0 0.66 0 1 0 C1 2.64 1 5.28 1 8 C-0.98 8 -2.96 8 -5 8 C-1.125 1.125 -1.125 1.125 0 0 Z " fill="#2D468B" transform="translate(236,208)"/>
<path d="M0 0 C2.52588702 2.36292656 3.88820837 3.66462511 5 7 C3.35 7 1.7 7 0 7 C0 4.69 0 2.38 0 0 Z " fill="#2C458A" transform="translate(0,209)"/>
</svg>
